<?xml version="1.0" standalone="no"?>
<!DOCTYPE svg PUBLIC "-//W3C//DTD SVG 20010904//EN"
 "http://www.w3.org/TR/2001/REC-SVG-20010904/DTD/svg10.dtd">
<svg version="1.0" xmlns="http://www.w3.org/2000/svg"
 width="1432.000000pt" height="1432.000000pt" viewBox="0 0 1432.000000 1432.000000"
 preserveAspectRatio="xMidYMid meet">
<metadata>
Created by potrace 1.11, written by Peter Selinger 2001-2013
</metadata>
<g transform="translate(0.000000,1432.000000) scale(0.100000,-0.100000)"
fill="#000000" stroke="none">
<path d="M7181 9989 c-309 -35 -646 -152 -881 -308 l-75 -50 -16 50 c-32 97
-123 178 -224 199 -36 7 -171 10 -402 8 -341 -3 -349 -3 -400 -27 -65 -29
-134 -101 -159 -166 -19 -49 -19 -115 -19 -2900 l0 -2850 25 -50 c31 -63 89
-121 149 -149 44 -20 62 -21 415 -24 326 -3 375 -1 424 14 71 23 151 95 183
166 l24 53 3 803 c1 441 5 802 8 802 3 0 31 -17 62 -38 212 -143 441 -229 767
-287 125 -22 393 -30 540 -16 455 44 860 215 1177 495 390 345 632 820 713
1396 22 156 31 643 16 821 -16 181 -46 350 -87 494 -242 841 -856 1406 -1679
1546 -139 23 -433 33 -564 18z m329 -1212 c316 -82 561 -299 680 -604 79 -202
85 -240 85 -573 0 -277 -2 -301 -24 -390 -92 -368 -297 -622 -601 -743 -201
-79 -490 -88 -705 -20 -343 108 -577 371 -681 765 -24 94 -27 123 -31 343 -4
193 -2 258 11 335 40 228 153 466 290 608 145 151 349 260 556 298 111 20 301
11 420 -19z"/>
</g>
</svg>
