<?xml version="1.0" standalone="no"?>
<!DOCTYPE svg PUBLIC "-//W3C//DTD SVG 20010904//EN"
 "http://www.w3.org/TR/2001/REC-SVG-20010904/DTD/svg10.dtd">
<svg version="1.0" xmlns="http://www.w3.org/2000/svg"
 width="1236.000000pt" height="1236.000000pt" viewBox="0 0 1236.000000 1236.000000"
 preserveAspectRatio="xMidYMid meet">
<metadata>
Created by potrace 1.11, written by Peter Selinger 2001-2013
</metadata>
<g transform="translate(0.000000,1236.000000) scale(0.100000,-0.100000)"
fill="#000000" stroke="none">
<path d="M4785 8189 c-305 -32 -628 -155 -872 -332 l-53 -38 0 34 c0 91 -74
199 -156 228 -30 11 -116 14 -379 14 l-341 0 -49 -26 c-56 -28 -109 -91 -125
-147 -7 -25 -10 -884 -10 -2662 l0 -2625 24 -51 c27 -59 90 -116 145 -132 26
-8 146 -12 367 -12 324 0 330 1 380 24 59 27 116 90 132 145 9 28 12 253 12
810 0 424 2 771 5 771 3 0 31 -19 63 -42 308 -228 763 -349 1190 -318 283 21
524 85 752 201 544 277 907 796 1014 1449 42 254 47 746 11 980 -109 711 -483
1255 -1060 1543 -310 155 -694 223 -1050 186z m310 -1048 c370 -102 615 -356
715 -741 44 -170 51 -526 15 -716 -62 -327 -241 -585 -502 -726 -192 -103
-495 -134 -727 -73 -282 74 -514 279 -637 565 -79 183 -104 348 -96 629 4 156
9 202 30 283 86 327 250 553 499 688 97 52 193 87 286 105 105 20 321 13 417
-14z"/>
<path d="M9125 8189 c-442 -48 -866 -230 -1182 -509 -302 -266 -552 -704 -632
-1110 -40 -203 -46 -278 -46 -565 1 -308 12 -423 65 -640 88 -366 289 -718
556 -975 314 -302 711 -485 1194 -551 110 -15 420 -15 535 0 306 40 621 147
860 291 523 316 859 859 947 1530 19 146 16 587 -6 735 -36 250 -96 445 -205
670 -80 164 -158 285 -263 410 -323 384 -749 619 -1268 700 -128 19 -432 27
-555 14z m480 -1053 c450 -132 715 -476 757 -983 15 -181 0 -395 -37 -539 -98
-377 -376 -659 -723 -734 -188 -40 -394 -35 -568 16 -348 100 -611 415 -678
812 -37 214 -29 501 19 679 46 174 131 338 237 458 134 152 382 283 603 318
17 3 91 4 165 2 110 -3 152 -8 225 -29z"/>
</g>
</svg>
